<svg width="28" height="27" viewBox="0 0 28 27" fill="none" xmlns="https://www.w3.org/2000/svg">
<path d="M25.9 11.1333C25.9 4.99395 20.8755 0 14.7 0C8.52447 0 3.5 4.99395 3.5 11.1333C3.5 14.1961 4.75 16.9731 6.77021 18.9875V27H10.8883L14.6266 24.9792L18.3649 27H22.4936V19.1204C24.5926 17.0954 25.9 14.2636 25.9 11.1333ZM14.7 2.35617C19.5649 2.35617 23.5234 6.29332 23.5234 11.1333C23.5234 15.9732 19.5649 19.9104 14.7 19.9104C9.83511 19.9104 5.8766 15.9732 5.8766 11.1333C5.8766 6.29332 9.83511 2.35617 14.7 2.35617ZM19.8245 24.7029H19.134L14.6266 22.2666L10.1191 24.7029H9.44043V20.9598C11.0096 21.793 12.8 22.2666 14.7 22.2666C16.6 22.2666 18.2872 21.8204 19.8245 21.0315V24.7029Z" fill="#202020"/>
<path d="M16.5494 5.68408C15.8968 5.68408 15.2731 5.81986 14.6992 6.06516C14.1243 5.81986 13.5006 5.68408 12.849 5.68408C10.0094 5.68408 7.69922 8.2341 7.69922 11.3683C7.69922 14.5025 10.0094 17.0525 12.849 17.0525C13.5016 17.0525 14.1253 16.9167 14.6992 16.6714C15.2742 16.9167 15.8978 17.0525 16.5494 17.0525C19.389 17.0525 21.6992 14.5025 21.6992 11.3683C21.6992 8.2341 19.389 5.68408 16.5494 5.68408ZM13.714 11.3683C13.714 10.4213 14.0963 9.5713 14.6992 8.99512C15.3021 9.57016 15.6844 10.4202 15.6844 11.3683C15.6844 12.3164 15.3021 13.1653 14.6992 13.7415C14.0963 13.1664 13.714 12.3164 13.714 11.3683ZM10.0125 11.3683C10.0125 9.88164 10.9532 8.63458 12.2098 8.31283C11.698 9.19592 11.3997 10.2433 11.3997 11.3683C11.3997 12.4933 11.698 13.5407 12.2098 14.4238C10.9532 14.1031 10.0125 12.8549 10.0125 11.3683ZM17.1876 14.4238C17.6994 13.5407 17.9977 12.4933 17.9977 11.3683C17.9977 10.2433 17.6994 9.19592 17.1876 8.31283C18.4442 8.63344 19.3849 9.88164 19.3849 11.3683C19.3849 12.8549 18.4442 14.102 17.1876 14.4238Z" fill="#202020"/>
</svg>
