<svg width="82" height="78" viewBox="0 0 82 78" fill="none" xmlns="https://www.w3.org/2000/svg">
<path d="M75.425 32.1628C75.425 14.427 60.8899 0 43.025 0C25.1601 0 10.625 14.427 10.625 32.1628C10.625 41.0109 14.2411 49.0334 20.0853 54.8529V78H31.9983L42.8127 72.1622L53.627 78H65.5708V55.2368C71.6427 49.3868 75.425 41.2059 75.425 32.1628V32.1628ZM43.025 6.80672C57.0984 6.80672 68.5499 18.1807 68.5499 32.1628C68.5499 46.1449 57.0984 57.5189 43.025 57.5189C28.9516 57.5189 17.5002 46.1449 17.5002 32.1628C17.5002 18.1807 28.9516 6.80672 43.025 6.80672ZM57.8494 71.3639H55.8521L42.8127 64.3256L29.7733 71.3639H27.8098V60.5505C32.3491 62.9576 37.5286 64.3256 43.025 64.3256C48.5214 64.3256 53.4024 63.0368 57.8494 60.7577V71.3639Z" fill="#202020"/>
<path d="M48.3759 16.4209C46.4878 16.4209 44.6837 16.8131 43.0234 17.5218C41.3602 16.8131 39.556 16.4209 37.671 16.4209C29.4565 16.4209 22.7734 23.7876 22.7734 32.842C22.7734 41.8963 29.4565 49.263 37.671 49.263C39.559 49.263 41.3632 48.8708 43.0234 48.1621C44.6867 48.8708 46.4908 49.263 48.3759 49.263C56.5904 49.263 63.2734 41.8963 63.2734 32.842C63.2734 23.7876 56.5904 16.4209 48.3759 16.4209ZM40.1734 32.842C40.1734 30.1062 41.2792 27.6506 43.0234 25.9861C44.7676 27.6473 45.8735 30.1029 45.8735 32.842C45.8735 35.581 44.7676 38.0333 43.0234 39.6978C41.2792 38.0366 40.1734 35.581 40.1734 32.842V32.842ZM29.4655 32.842C29.4655 28.5472 32.1867 24.9446 35.8219 24.0151C34.3414 26.5662 33.4783 29.592 33.4783 32.842C33.4783 36.0919 34.3414 39.1177 35.8219 41.6688C32.1867 40.7426 29.4655 37.1367 29.4655 32.842ZM50.222 41.6688C51.7024 39.1177 52.5655 36.0919 52.5655 32.842C52.5655 29.592 51.7024 26.5662 50.222 24.0151C53.8572 24.9413 56.5784 28.5472 56.5784 32.842C56.5784 37.1367 53.8572 40.7394 50.222 41.6688Z" fill="#202020"/>
</svg>
