<svg width="50" height="50" viewBox="0 0 50 50" fill="none" xmlns="https://www.w3.org/2000/svg">
<g clip-path="url(#clip0_1709_80150)">
<rect width="50" height="50" rx="25" fill="#9E81D2"/>
<path d="M38.8988 31.995C38.8988 31.995 9.46566 30.6561 9.15755 30.6434C8.36343 29.5697 9.22425 27.1334 9.84208 26.1868C10.9125 24.5477 12.847 23.4868 13.4855 21.6349C14.2208 19.4987 12.99 17.8136 12.7978 15.7934C12.6231 13.8764 13.3965 11.9149 14.664 10.4855C17.229 7.62667 21.4838 6.20997 25.5926 6.24173C27.7367 6.25603 29.8395 6.66579 31.6406 7.46467C31.8598 7.56156 32.0726 7.6632 32.2759 7.7712C32.4347 7.85538 32.5935 7.94432 32.7524 8.03803C34.536 9.10145 36.0114 10.6118 37.0327 12.42C38.289 14.6181 38.5875 16.6558 37.8522 19.0906C37.3757 20.6502 36.7833 22.267 37.0787 23.8553C37.3964 25.6103 38.7527 27.0317 39.1085 28.7788C39.3356 29.8524 39.1688 30.9515 38.8988 31.995Z" fill="#F2DCCF"/>
<path d="M43.0231 43.6401C32.406 51.815 17.5972 51.7496 7.05273 43.4813L14.7811 39.8586C15.1491 39.6855 15.5024 39.4826 15.8373 39.2518C15.9389 39.182 16.0406 39.1089 16.1374 39.0327C16.9786 38.3891 17.6709 37.5716 18.1672 36.636C18.5424 35.9172 18.7917 35.1393 18.9041 34.3363C18.9817 33.8152 19.021 33.2891 19.0217 32.7623C19.0217 31.8538 18.9724 30.9454 18.9629 30.0353C18.9566 29.5313 18.9513 29.0278 18.947 28.5249L19.2647 28.6837L20.0906 29.111L20.4733 29.1761L24.9013 29.9289L29.8439 30.7707L29.9932 35.853L30.0424 37.5143L30.0663 38.3211V38.3736L31.988 39.155L43.0231 43.6401Z" fill="#F2C296"/>
<path d="M30.0475 37.9921C29.5016 38.086 28.94 37.999 28.4481 37.7443L18.9759 29.9969C18.9647 29.638 18.9552 30.0144 18.9505 29.6554C18.9441 29.1525 18.9388 28.649 18.9346 28.145L19.2522 28.3038L20.0781 28.7311L20.4609 28.7962L24.8889 29.549L29.8315 30.3908L29.9807 35.4731L30.03 37.1344L30.0538 37.9413V37.9937L30.0475 37.9921Z" fill="#E8A270"/>
<path d="M43.0231 43.6397C32.406 51.8146 17.5972 51.7492 7.05273 43.4809L14.7811 39.8581C15.1491 39.6851 15.5024 39.4822 15.8373 39.2514C15.9389 39.1815 16.0406 39.1085 16.1374 39.0322C19.8777 41.6941 24.9823 43.3729 29.3976 41.386C30.449 40.9095 31.4147 40.1408 31.9864 39.1529L43.0231 43.6397Z" fill="url(#paint0_linear_1709_80150)"/>
<circle cx="17.0652" cy="24.389" r="2.7" fill="#F2C296"/>
<circle cx="17.9212" cy="24.3494" r="2.41729" fill="#E8A270"/>
<path d="M17.8369 21.8017L18.9582 30.8149C18.9868 31.0468 20.7053 31.7266 20.907 31.833C23.2099 33.0385 25.5811 34.6426 28.1874 35.0555C29.2992 35.2318 30.4666 35.2143 31.5227 34.8062C33.3841 34.0915 33.6351 32.6906 34.2736 31.042C34.8485 29.5562 35.301 28.0259 35.6267 26.4663C35.9444 24.9734 36.2271 22.9198 35.1312 21.6397C34.9978 21.4809 34.8549 21.3967 34.8819 21.1632C35.1137 19.2065 35.4822 16.9925 34.6293 15.1438C34.0734 13.9415 33.1745 12.9298 32.1882 12.0483C32.1882 12.0483 24.687 17.6866 24.0056 18.0836C22.3809 19.0159 17.8369 21.8017 17.8369 21.8017Z" fill="#F2C296"/>
<path d="M30.1207 21.2856C30.1207 21.3317 32.1314 26.0218 32.1314 26.0218L29.749 26.2521" stroke="#00214E" stroke-width="0.3"/>
<path d="M22.8096 19.3175C24.264 18.9454 25.7725 18.832 27.2662 18.9824" stroke="#00214E" stroke-width="0.3"/>
<path d="M32.2021 19.2686C33.0996 19.0171 34.0314 18.9099 34.9625 18.9509" stroke="#00214E" stroke-width="0.3"/>
<path d="M26.321 27.8085C26.3617 27.7369 26.4305 27.6856 26.5107 27.6669C26.5909 27.6482 26.6753 27.6638 26.7435 27.71C27.0833 27.9276 27.7091 28.393 28.5731 28.5248C29.75 28.7059 30.7442 28.1944 30.9983 28.4851C31.1429 28.6439 30.9856 28.8631 30.6807 29.1426C30.0272 29.6778 29.1853 29.9264 28.346 29.8319C27.2136 29.6731 26.3115 28.4025 26.2924 27.9451C26.2898 27.8978 26.2997 27.8507 26.321 27.8085Z" fill="white"/>
<path d="M25.5794 21.0883C26.5467 21.0454 26.6245 22.5257 25.6572 22.5828H25.6144C24.6455 22.6257 24.5677 21.1455 25.5365 21.0883H25.5794Z" fill="#00214E"/>
<path d="M33.5457 20.5677C34.443 20.528 34.5161 21.9003 33.6171 21.9543H33.5774C32.6785 21.994 32.607 20.6217 33.5044 20.5677H33.5457V20.5677Z" fill="#00214E"/>
</g>
<defs>
<linearGradient id="paint0_linear_1709_80150" x1="36.1057" y1="41.9115" x2="30.0375" y2="57.462" gradientUnits="userSpaceOnUse">
<stop stop-color="#01AF8F"/>
<stop offset="1" stop-color="#0166AF"/>
</linearGradient>
<clipPath id="clip0_1709_80150">
<rect width="50" height="50" rx="25" fill="white"/>
</clipPath>
</defs>
</svg>
